<svg width="138" height="60" viewBox="0 0 138 60" xmlns="http://www.w3.org/2000/svg"><title>4 + 4 copy + Rectangle 15 + Rectangle 15 Copy + Fill 1 Copy Copy Copy</title><g fill="none" fill-rule="evenodd"><g fill="#CC342D"><path d="M45 15.996C45 9.371 50.37 4 56.996 4h32.008C95.629 4 101 9.37 101 15.996v32.008C101 54.629 95.63 60 89.004 60H56.996C50.371 60 45 54.63 45 48.004V15.996zm9.333 3.336a5.998 5.998 0 0 1 5.999-5.999h25.336a5.998 5.998 0 0 1 5.999 5.999v25.336a5.998 5.998 0 0 1-5.999 5.999H60.332a5.998 5.998 0 0 1-5.999-5.999V19.332z" fill-opacity=".15"/><path d="M41 11.996C41 5.371 46.37 0 52.996 0h32.008C91.629 0 97 5.37 97 11.996v32.008C97 50.629 91.63 56 85.004 56H52.996C46.371 56 41 50.63 41 44.004V11.996zm9.333 5.346a8.005 8.005 0 0 1 8.01-8.009h21.315a8.005 8.005 0 0 1 8.009 8.01v21.315a8.005 8.005 0 0 1-8.01 8.009H58.343a8.005 8.005 0 0 1-8.009-8.01V17.343z"/><path d="M77.609 32.832L74.777 30l2.832-2.832a1.336 1.336 0 0 0 0-1.89l-1.888-1.887a1.336 1.336 0 0 0-1.889 0L71 26.223l-2.832-2.832a1.336 1.336 0 0 0-1.889 0l-1.888 1.888a1.336 1.336 0 0 0 0 1.889L67.224 30l-2.833 2.832a1.336 1.336 0 0 0 0 1.89l1.888 1.887a1.335 1.335 0 0 0 1.889 0L71 33.777l2.832 2.832a1.335 1.335 0 0 0 1.889 0l1.888-1.888a1.336 1.336 0 0 0 0-1.889" fill-opacity=".15"/><path d="M75.609 30.832L72.777 28l2.832-2.832a1.336 1.336 0 0 0 0-1.89l-1.888-1.887a1.336 1.336 0 0 0-1.889 0L69 24.223l-2.832-2.832a1.336 1.336 0 0 0-1.889 0l-1.888 1.888a1.336 1.336 0 0 0 0 1.889L65.224 28l-2.833 2.832a1.336 1.336 0 0 0 0 1.89l1.888 1.887a1.335 1.335 0 0 0 1.889 0L69 31.777l2.832 2.832a1.335 1.335 0 0 0 1.889 0l1.888-1.888a1.336 1.336 0 0 0 0-1.889"/></g><path d="M132.515 46.685v-10.01h5.39v-2.86h-5.39V10h-4.235L112 33.87v2.805h17.38v10.01h3.135zm-3.135-12.87h-14.135l14.135-20.68v20.68zM20.515 46.685v-10.01h5.39v-2.86h-5.39V10H16.28L0 33.87v2.805h17.38v10.01h3.135zm-3.135-12.87H3.245l14.135-20.68v20.68z" fill="#343434"/></g></svg>