<?xml version="1.0" ?><!DOCTYPE svg  PUBLIC '-//W3C//DTD SVG 1.1//EN'  'http://www.w3.org/Graphics/SVG/1.1/DTD/svg11.dtd'><svg height="48px" id="Слой_1" style="enable-background:new 0 0 48 48;" version="1.1" viewBox="0 0 48 48" width="48px" xml:space="preserve" xmlns="http://www.w3.org/2000/svg" xmlns:xlink="http://www.w3.org/1999/xlink"><g><g><circle cx="42" cy="33" r="2" style="fill:#7D50F9;"/><g><path d="M34,44c0,0.6-0.4,1-1,1H3c-0.6,0-1-0.4-1-1V23c0-0.6,0.4-1,1-1h30c0.6,0,1,0.4,1,1v4h2v-4      c0-1.7-1.3-3-3-3h-3v-2.5c0-0.8-0.7-1.5-1.5-1.5H27v-6c0-5-4-9-9-9s-9,4-9,9v6H7.5C6.7,16,6,16.7,6,17.5V20H3c-1.7,0-3,1.3-3,3      v21c0,1.7,1.3,3,3,3h30c1.7,0,3-1.3,3-3v-4h-2V44z M28,20h-4v-2h4V20z M11,10c0-3.9,3.1-7,7-7s7,3.1,7,7v6h-1.5      c-0.8,0-1.5,0.7-1.5,1.5V20h-8v-2.5c0-0.8-0.7-1.5-1.5-1.5H11V10z M8,18h4v2H8V18z" style="fill:#303033;"/><path d="M5,26.5V31h2v-4h4v-2H6.5C5.7,25,5,25.7,5,26.5z" style="fill:#303033;"/><path d="M42,27c-3,0-5.4,2.2-5.9,5H22v6h2v-4h2v2h2v-2h8.1c0.5,2.8,2.9,5,5.9,5c3.3,0,6-2.7,6-6      S45.3,27,42,27z M42,37c-2.2,0-4-1.8-4-4s1.8-4,4-4s4,1.8,4,4S44.2,37,42,37z" style="fill:#303033;"/></g></g></g></svg>