<?xml version="1.0" encoding="utf-8"?>
<!-- Generator: Adobe Illustrator 18.1.1, SVG Export Plug-In . SVG Version: 6.00 Build 0)  -->
<!DOCTYPE svg PUBLIC "-//W3C//DTD SVG 1.1//EN" "http://www.w3.org/Graphics/SVG/1.1/DTD/svg11.dtd">
<svg version="1.1" id="Layer_1" xmlns="http://www.w3.org/2000/svg" xmlns:xlink="http://www.w3.org/1999/xlink" x="0px" y="0px"
	 viewBox="0 0 32 32" enable-background="new 0 0 32 32" xml:space="preserve">
<g>
	<linearGradient id="SVGID_1_" gradientUnits="userSpaceOnUse" x1="16" y1="-2.1857" x2="16" y2="33.6511">
		<stop  offset="0" style="stop-color:#00BEE1"/>
		<stop  offset="1" style="stop-color:#66D0C2"/>
	</linearGradient>
	<path fill="url(#SVGID_1_)" d="M16,0C7.164,0,0,7.163,0,16s7.164,16,16,16s16-7.163,16-16S24.836,0,16,0z M16,30.694
		C7.898,30.694,1.306,24.102,1.306,16S7.898,1.306,16,1.306S30.694,7.898,30.694,16S24.102,30.694,16,30.694z"/>
	<linearGradient id="SVGID_2_" gradientUnits="userSpaceOnUse" x1="16" y1="-2.1857" x2="16" y2="33.6511">
		<stop  offset="0" style="stop-color:#00BEE1"/>
		<stop  offset="1" style="stop-color:#66D0C2"/>
	</linearGradient>
	<path fill="url(#SVGID_2_)" d="M7.162,27.73c0.369,0.279,0.751,0.54,1.146,0.783c1.993-0.732,3.017-1.549,3.526-2.207l0.223-1.229
		c0.895,0.665,2.23,1.356,3.943,1.356s3.048-0.691,3.943-1.356l0.223,1.229c0.509,0.659,1.533,1.476,3.526,2.207
		c0.395-0.243,0.777-0.505,1.146-0.783c-2.159-0.677-3.169-1.421-3.632-1.915l-0.297-1.632c0.495-0.577,1.144-1.751,1.719-4.256
		c0.835-0.682,1.341-1.822,1.341-3.064c0-0.625-0.13-1.236-0.377-1.782c-0.016-0.305-0.043-0.6-0.083-0.88
		c0.069-0.429,0.104-0.867,0.104-1.303c0-4.171-3.13-7.564-6.978-7.564c-0.055,0-0.357,0.003-0.637,0.007
		c-0.279-0.004-0.582-0.007-0.637-0.007c-3.848,0-6.978,3.393-6.978,7.564c0,0.436,0.035,0.873,0.104,1.303
		c-0.039,0.281-0.067,0.575-0.083,0.88C8.16,15.627,8.03,16.238,8.03,16.863c0,1.242,0.506,2.382,1.341,3.064
		c0.575,2.505,1.225,3.679,1.719,4.256l-0.297,1.632C10.331,26.309,9.32,27.053,7.162,27.73z M10.424,19.545
		c-0.059-0.113-0.114-0.23-0.168-0.347c-0.657-0.418-1.115-1.302-1.115-2.335c0-0.562,0.138-1.078,0.366-1.503
		c0.012-0.4,0.046-0.792,0.107-1.171c-0.077-0.417-0.118-0.849-0.118-1.291c0-3.564,2.627-6.453,5.867-6.453
		c0.055,0,0.36,0.003,0.637,0.007c0.277-0.004,0.582-0.007,0.637-0.007c3.24,0,5.867,2.889,5.867,6.453
		c0,0.442-0.041,0.874-0.118,1.291c0.062,0.379,0.095,0.771,0.107,1.171c0.228,0.425,0.366,0.941,0.366,1.503
		c0,1.033-0.457,1.917-1.115,2.335c-0.054,0.118-0.108,0.235-0.168,0.347c-0.234,1.045-0.73,2.897-1.42,3.793
		c-0.473,0.442-1.925,1.93-4.156,1.93s-3.683-1.488-4.156-1.93C11.154,22.443,10.658,20.59,10.424,19.545z"/>
</g>
</svg>
