<?xml version="1.0" encoding="utf-8"?>
<!-- Generator: Adobe Illustrator 19.2.1, SVG Export Plug-In . SVG Version: 6.00 Build 0)  -->
<svg version="1.1" id="Layer_1" xmlns="http://www.w3.org/2000/svg" xmlns:xlink="http://www.w3.org/1999/xlink" x="0px" y="0px"
	 viewBox="0 0 57.2 65.8" style="enable-background:new 0 0 57.2 65.8;" xml:space="preserve">
<style type="text/css">
	.st0{fill:#1C8AA3;}
	.st1{fill:#85C9C7;}
	.st2{fill:#FFFFFF;}
</style>
<path class="st0" d="M47.4,0H28.6h0H9.8c0,0-2.9,5.1-6.8,5.5c-14,48.4,25.6,60.3,25.6,60.3h0c0,0,39.6-12,25.6-60.3
	C50.3,5.1,47.4,0,47.4,0"/>
<path class="st1" d="M45.4,3H28.3h0H11.2c0,0-2.6,4.6-6.2,5C-7.7,51.7,28.3,62.5,28.3,62.5h0c0,0,36-10.8,23.3-54.5
	C48.1,7.6,45.4,3,45.4,3"/>
<path class="st2" d="M22.6,22.6c0-3.8,2.9-6.6,5.7-6.6c2.8,0,5.7,2.7,5.7,6.6H22.6z M30.5,38.9h-4.4l0.8-6.3
	c-0.9-0.5-1.4-1.6-1.4-2.7c0-1.6,1.3-2.9,2.8-2.9c1.6,0,2.8,1.2,2.8,2.8c0,1.1-0.6,2.4-1.5,2.9L30.5,38.9z M37.9,22.6h-1.3
	c0-4.2-3.5-9.2-8.3-9.2c-4.8,0-8.3,5-8.3,9.2h-1.3c-1.9,0-2.8,1.6-2.8,3.5v12.3c0,1.9,0.9,3.1,2.8,3.1h19.3c1.9,0,3.1-1.2,3.1-3.1
	V26.2C41,24.2,39.9,22.6,37.9,22.6"/>
</svg>
