<?xml version="1.0" encoding="utf-8"?>
<!-- Generator: Adobe Illustrator 20.1.0, SVG Export Plug-In . SVG Version: 6.00 Build 0)  -->
<svg version="1.1" xmlns="http://www.w3.org/2000/svg" xmlns:xlink="http://www.w3.org/1999/xlink" x="0px" y="0px"
	 viewBox="0 0 10000 7000" style="enable-background:new 0 0 10000 7000;" xml:space="preserve">
<style type="text/css">
	.st0{fill:#273D83;}
	.st1{fill:#F4E600;}
	.st2{fill:#FFFFFF;}
	.st3{fill-rule:evenodd;clip-rule:evenodd;fill:#FFFFFF;}
</style>
<g id="Camada_1">
	<g id="Contorno">
		<g id="XMLID_1_">
			<g>
				<rect class="st0" width="10000" height="7000"/>
			</g>
			<g>
			</g>
		</g>
	</g>
</g>
<g id="Camada_2">
	<path id="Coroa_2_" class="st1" d="M3709,1545.9c-31.4,0-56.9,25.5-56.9,56.9c0,13.2,4.5,25.3,12.1,35
		c-170.8,128.6-363.2,219.1-566.3,271.5c137.3-197,257.4-364.7,381.6-596.5c8.1,4.5,17.5,7,27.4,7c31.4,0,56.9-25.5,56.9-56.9
		c0-31.4-25.5-56.9-56.9-56.9c-31.4,0-56.9,25.5-56.9,56.9c0,15.3,6.1,29.2,15.9,39.4c-172.2,188-347.7,296.2-542,417.9
		c52.3-204,79.5-410.4,130.7-619.3c4.7,1.3,9.6,2,14.7,2c31.4,0,56.9-25.5,56.9-56.9c0-31.4-25.5-56.9-56.9-56.9
		c-31.4,0-56.9,25.5-56.9,56.9c0,18.3,8.7,34.5,22.1,44.9c-134.4,196.2-248.5,376-388.4,539.3c-48.2-188.4-96.5-462.5-144.8-654.8
		c24.7-6.2,43-28.5,43-55.1c0-31.4-25.5-56.9-56.9-56.9c-31.4,0-56.9,25.5-56.9,56.9c0,26.6,18.3,48.9,43,55.1
		c-48.3,192.3-96.6,466.4-144.8,654.8c-139.6-162.9-253.4-342.3-387.6-538.1c14.3-10.3,23.7-27.1,23.7-46.1
		c0-31.4-25.5-56.9-56.9-56.9c-31.4,0-56.9,25.5-56.9,56.9c0,31.4,25.5,56.9,56.9,56.9c4.3,0,8.4-0.5,12.5-1.4
		c51.1,208.6,78.3,414.9,130.6,618.7c-194.8-122-348.5-233.1-521.1-421.7c9.1-10.1,14.7-23.4,14.7-38.1c0-31.4-25.5-56.9-56.9-56.9
		c-31.4,0-56.9,25.5-56.9,56.9c0,31.4,25.5,56.9,56.9,56.9c10.7,0,20.7-3,29.2-8.2c124.4,232.2,222.6,402.8,360.1,600.1
		c-203.1-52.4-395.5-142.9-566.3-271.5c7.5-9.7,12.1-21.8,12.1-35c0-31.4-25.5-56.9-56.9-56.9c-31.4,0-56.9,25.5-56.9,56.9
		c0,31.4,25.5,56.9,56.9,56.9c12.7,0,24.5-4.2,33.9-11.3c157.2,207,333.1,381.3,519,523.1c161.4-69.7,401-113.8,668.5-113.8
		c267.5,0,507.1,44.2,668.5,113.8c185.9-141.8,361.8-316.1,519-523.1c9.5,7.1,21.2,11.3,33.9,11.3c31.4,0,56.9-25.5,56.9-56.9
		C3765.8,1571.4,3740.4,1545.9,3709,1545.9"/>
	<g>
		<path class="st0" d="M2069.5,2017l16.6,0.6c-0.5,13.6-4.4,24.8-11.5,33.4c-7.1,8.6-16.9,14.3-29.3,16.9c-12.8,2.7-23.8,2.4-33-1.1
			c-9.2-3.5-16.9-9.8-23.2-18.8c-6.3-9-10.7-19.2-13.1-30.6c-2.6-12.4-2.6-23.7,0.2-33.9c2.8-10.2,8-18.7,15.7-25.3
			c7.7-6.7,16.8-11.1,27.3-13.4c11.9-2.5,22.6-1.7,32,2.7c9.4,4.3,16.9,11.6,22.4,21.9l-14.7,7c-4.6-8.1-10-13.5-16.1-16.3
			c-6.1-2.8-13.1-3.4-21.1-1.7c-9.1,2-16.3,5.8-21.5,11.5c-5.2,5.7-8.3,12.5-9.2,20.4c-0.9,7.9-0.5,15.8,1.1,23.6
			c2.2,10.1,5.5,18.6,10.1,25.6c4.6,6.9,10.4,11.6,17.4,14c7,2.4,14.2,2.8,21.4,1.3c8.8-1.9,15.7-6,20.8-12.4
			C2067,2035.9,2069.5,2027.5,2069.5,2017z"/>
		<path class="st0" d="M2100.9,2054.2l28.5-127.2l17.2-2.5l67,113.1l-18.1,2.7l-19.4-34.4l-50.3,7.4l-7.9,38.4L2100.9,2054.2z
			 M2128.4,1999.7l40.8-6l-17.5-31.5c-5.3-9.6-9.4-17.5-12.2-23.7c-0.4,7.9-1.4,15.9-3.1,23.9L2128.4,1999.7z"/>
		<path class="st0" d="M2309.4,1986.1l16.4,2.6c-2.2,13.5-7.3,24.1-15.4,31.8c-8.1,7.7-18.5,12.1-31.1,13.3
			c-13.1,1.2-23.9-0.5-32.6-5.1c-8.7-4.6-15.6-11.7-20.8-21.4c-5.2-9.7-8.3-20.3-9.3-31.9c-1.1-12.6,0.3-23.8,4.2-33.7
			c4-9.8,10.2-17.6,18.6-23.3c8.5-5.7,18-9,28.7-10c12.1-1.1,22.6,1.1,31.4,6.5c8.8,5.4,15.4,13.6,19.6,24.5l-15.5,5.1
			c-3.6-8.6-8.3-14.6-14-18.2c-5.7-3.5-12.6-4.9-20.7-4.2c-9.3,0.8-16.9,3.8-22.7,8.8c-5.9,5-9.7,11.4-11.6,19.2
			c-1.9,7.8-2.4,15.6-1.7,23.6c0.9,10.3,3.2,19.2,6.9,26.6c3.7,7.4,8.9,12.7,15.6,16c6.7,3.2,13.7,4.5,21.1,3.8
			c9-0.8,16.4-4.1,22.1-9.8C2304.6,2004.5,2308.1,1996.5,2309.4,1986.1z"/>
		<path class="st0" d="M2349.9,2026l-4.5-121.6l16.1-0.6l1.8,49.9l63.2-2.3l-1.8-49.9l16.1-0.6l4.5,121.6l-16.1,0.6l-2.1-57.3
			l-63.2,2.3l2.1,57.3L2349.9,2026z"/>
		<path class="st0" d="M2468.5,1962.7c0.3-20.2,6-35.9,17-47.2c11-11.3,25.1-16.8,42.3-16.5c11.2,0.2,21.3,3,30.3,8.5
			c8.9,5.5,15.7,13.1,20.3,22.8c4.6,9.7,6.8,20.6,6.6,32.8c-0.2,12.3-2.9,23.3-8,33c-5.1,9.7-12.3,16.9-21.5,21.8
			c-9.2,4.9-19.1,7.2-29.7,7.1c-11.5-0.2-21.6-3.1-30.6-8.8c-8.9-5.7-15.6-13.3-20.1-23C2470.5,1983.6,2468.3,1973.4,2468.5,1962.7z
			 M2485.1,1963.2c-0.2,14.7,3.5,26.3,11.3,34.8c7.8,8.6,17.6,12.9,29.5,13.1c12.1,0.2,22.2-3.9,30.1-12.3
			c8-8.4,12.1-20.4,12.3-36.1c0.2-9.9-1.4-18.6-4.6-26c-3.2-7.4-8-13.2-14.4-17.4c-6.4-4.2-13.6-6.3-21.6-6.4
			c-11.4-0.2-21.3,3.6-29.6,11.3C2489.7,1931.9,2485.4,1944.9,2485.1,1963.2z"/>
		<path class="st0" d="M2605.3,2025l8.2-121.4l87.8,5.9l-1,14.3l-71.7-4.8l-2.5,37.2l67.2,4.5l-1,14.2l-67.2-4.5l-2.8,41.3l74.5,5
			l-1,14.3L2605.3,2025z"/>
		<path class="st0" d="M2721,2034l12.5-121l16,1.7l-12.5,121L2721,2034z"/>
		<path class="st0" d="M2765.8,2038.4l17.4-120.4l53.4,7.7c10.7,1.6,18.7,3.8,24,6.8c5.3,3,9.2,7.4,11.7,13.4
			c2.5,6,3.3,12.3,2.4,18.9c-1.2,8.5-5,15.3-11.4,20.4c-6.4,5.1-15.5,7.5-27.2,7.5c3.9,2.6,6.8,5.1,8.7,7.4
			c4,4.9,7.7,10.9,10.9,17.9l16.2,35.8l-20-2.9l-12.3-27.4c-3.6-7.9-6.6-14-9.1-18.3c-2.5-4.3-4.8-7.3-6.9-9.2
			c-2.2-1.9-4.4-3.3-6.8-4.3c-1.8-0.6-4.7-1.3-8.8-1.9l-18.5-2.7l-7.7,53.5L2765.8,2038.4z M2791.4,1973.4l34.3,5
			c7.3,1.1,13.1,1.1,17.4,0.2c4.3-0.9,7.8-2.9,10.4-5.9c2.6-3,4.2-6.4,4.8-10.3c0.8-5.7-0.6-10.7-4.2-14.9c-3.6-4.3-9.9-7-18.8-8.3
			l-38.1-5.5L2791.4,1973.4z"/>
		<path class="st0" d="M2895.1,1997.7c4.3-19.7,12.9-34,25.9-42.9c13-8.9,27.9-11.5,44.7-7.9c11,2.4,20.3,7.1,28,14.3
			c7.7,7.2,12.8,15.9,15.4,26.3c2.6,10.4,2.6,21.5,0,33.4c-2.6,12.1-7.4,22.3-14.3,30.8c-6.9,8.5-15.4,14.2-25.4,17.1
			c-10,3-20.1,3.3-30.5,1.1c-11.2-2.4-20.6-7.3-28.3-14.6c-7.6-7.3-12.7-16.1-15.2-26.5C2893,2018.5,2892.8,2008.1,2895.1,1997.7z
			 M2911.3,2001.4c-3.1,14.3-1.7,26.5,4.2,36.4c5.9,9.9,14.7,16.1,26.3,18.7c11.8,2.6,22.5,0.5,32-6.2c9.5-6.7,15.8-17.7,19.2-33
			c2.1-9.7,2.3-18.5,0.6-26.4c-1.7-7.9-5.3-14.6-10.7-19.9c-5.4-5.3-12.1-8.9-19.9-10.6c-11.1-2.4-21.6-0.7-31.2,5.2
			C2921.9,1971.6,2915.1,1983.5,2911.3,2001.4z"/>
	</g>
</g>
<g id="Camada_3">
	<g id="Faixas">
		<polygon class="st2" points="6197.3,6136.4 4819.5,6136.4 7413.1,1644.3 8790.8,1644.3 		"/>
		<polygon class="st2" points="4419.5,6136.4 3714.1,6136.4 6307.6,1644.3 7013.1,1644.3 		"/>
		<polygon class="st2" points="3314.1,6136.4 1936.3,6136.4 4529.8,1644.3 5907.6,1644.3 		"/>
	</g>
</g>
<g id="Camada_4">
	<g id="Cruzeiro_do_Sul">
		<polygon class="st3" points="2504.7,4029.8 2543,4145.9 2543,4145.9 2667,4145.9 2566.7,4217.7 2605,4333.8 2504.7,4262.1 
			2404.5,4333.8 2442.8,4217.7 2442.7,4217.7 2442.8,4217.7 2342.5,4145.9 2466.4,4145.9 2466.4,4145.9 2466.4,4145.9 
			2504.7,4029.8 		"/>
		<polygon class="st3" points="3032.7,3222.2 3071,3338.3 3071,3338.3 3195,3338.3 3094.7,3410 3133,3526.1 3032.7,3454.4 
			2932.5,3526.1 2970.8,3410 2970.8,3410 2970.8,3410 2870.5,3338.3 2994.4,3338.3 2994.4,3338.3 2994.4,3338.3 3032.7,3222.2 		"/>
		<polygon class="st3" points="2640.6,3453.6 2669.1,3540 2669.1,3540 2761.3,3540 2686.7,3593.4 2715.2,3679.8 2640.6,3626.4 
			2566,3679.8 2594.5,3593.4 2594.5,3593.4 2594.5,3593.4 2519.9,3540 2612.1,3540 2612.1,3540 2612.1,3540 2640.6,3453.6 		"/>
		<polygon class="st3" points="2480.5,2740.4 2518.8,2856.5 2518.8,2856.5 2642.8,2856.5 2542.5,2928.3 2580.8,3044.4 
			2480.5,2972.6 2380.3,3044.4 2418.6,2928.3 2418.6,2928.3 2418.6,2928.3 2318.3,2856.5 2442.2,2856.5 2442.2,2856.5 
			2442.2,2856.5 2480.5,2740.4 		"/>
		<polygon class="st3" points="1942.9,3212.4 1981.2,3328.5 1981.2,3328.5 2105.2,3328.5 2004.9,3400.3 2043.2,3516.4 
			1942.9,3444.7 1842.6,3516.4 1880.9,3400.3 1880.9,3400.3 1880.9,3400.3 1780.7,3328.5 1904.6,3328.5 1904.6,3328.5 
			1904.6,3328.5 1942.9,3212.4 		"/>
	</g>
</g>
</svg>
