<?xml version="1.0" encoding="utf-8"?>
<!-- Generator: Adobe Illustrator 15.1.0, SVG Export Plug-In . SVG Version: 6.00 Build 0)  -->
<!DOCTYPE svg PUBLIC "-//W3C//DTD SVG 1.1//EN" "http://www.w3.org/Graphics/SVG/1.1/DTD/svg11.dtd">
<svg version="1.1" xmlns="http://www.w3.org/2000/svg" xmlns:xlink="http://www.w3.org/1999/xlink" x="0px" y="0px" width="4000px"
	 height="3000px" viewBox="0 0 4000 3000" enable-background="new 0 0 4000 3000" xml:space="preserve">
<g id="Camada_4">
	<rect x="0" fill="#007736" width="4000" height="3000"/>
	<rect x="0" y="1516.438" fill="#008ACD" width="4000" height="753.123"/>
</g>
<g id="Camada_3">
	<path fill="#CC2B00" stroke="#000000" stroke-width="4" stroke-miterlimit="10" d="M1393.043,661.537
		c-1.647-28.695-5.562-57.571-11.635-85.825c-6.073-28.256-14.369-56.19-24.657-83.027c-1.48-3.86-5.173-6.308-9.168-6.308
		c-0.684,0-1.377,0.071-2.069,0.22l-36.212,7.783c-27.534-65.864-67.763-124.094-119.732-173.304l20.104-31.112
		c2.627-4.065,1.901-9.439-1.71-12.662c-43.275-38.61-92.082-70.148-145.065-93.738c-1.292-0.575-2.65-0.851-3.991-0.851
		c-3.249,0-6.396,1.615-8.255,4.493l-20.105,31.113c-61.73-25.31-126.748-38.137-193.387-38.137c-4.579,0-9.197,0.063-13.806,0.188
		l-7.784-36.215c-0.978-4.548-4.998-7.759-9.598-7.759c-0.188,0-0.378,0.005-0.568,0.016c-28.691,1.646-57.567,5.561-85.827,11.634
		c-28.26,6.075-56.194,14.37-83.026,24.658c-4.521,1.733-7.105,6.502-6.088,11.237l7.783,36.212
		c-65.863,27.534-124.092,67.763-173.304,119.732l-31.113-20.104c-1.638-1.059-3.489-1.573-5.326-1.573
		c-2.721,0-5.411,1.128-7.335,3.284c-38.611,43.277-70.15,92.083-93.739,145.065c-1.969,4.422-0.423,9.619,3.643,12.247
		l31.113,20.104c-27.16,66.218-39.911,135.835-37.951,207.195l-36.213,7.783c-4.733,1.018-8.02,5.333-7.742,10.167
		c1.646,28.691,5.561,57.568,11.634,85.826c6.074,28.26,14.37,56.194,24.657,83.026c1.48,3.86,5.173,6.309,9.168,6.308
		c0.684,0,1.377-0.071,2.069-0.22l36.213-7.783c27.533,65.863,67.763,124.092,119.731,173.304l-20.105,31.112
		c-2.627,4.065-1.901,9.439,1.71,12.662c43.277,38.612,92.085,70.151,145.067,93.738c1.292,0.576,2.65,0.851,3.99,0.851
		c3.249,0,6.396-1.615,8.256-4.493l20.105-31.112c61.734,25.31,126.753,38.137,193.39,38.137c4.578,0,9.196-0.063,13.804-0.188
		l7.784,36.215c0.978,4.547,4.998,7.759,9.598,7.759c0.188,0,0.379-0.005,0.569-0.016c28.698-1.648,57.574-5.562,85.824-11.634
		c28.252-6.072,56.187-14.368,83.027-24.658c4.521-1.734,7.105-6.503,6.088-11.237l-7.784-36.214
		c65.862-27.531,124.091-67.76,173.304-119.73l31.112,20.103c1.638,1.059,3.489,1.573,5.327,1.573c2.72,0,5.411-1.127,7.334-3.284
		c38.612-43.274,70.15-92.082,93.739-145.066c1.969-4.422,0.423-9.619-3.643-12.246l-31.112-20.104
		c27.16-66.218,39.91-135.835,37.95-207.195l36.213-7.783C1390.034,670.687,1393.321,666.372,1393.043,661.537z M1251.259,768.666
		c-0.869,4.737-5,8.053-9.651,8.053c-0.586,0-1.182-0.053-1.779-0.162l-381.613-69.831l220.463,319.218
		c3.082,4.462,1.964,10.579-2.498,13.663c-45.576,31.503-96.371,53.427-150.974,65.164c-29.297,6.296-59.215,9.49-88.922,9.49
		c-25.253,0-50.654-2.311-75.496-6.867c-5.335-0.978-8.868-6.095-7.891-11.43l69.829-381.604L503.513,934.816
		c-1.704,1.177-3.648,1.741-5.573,1.741c-3.117,0-6.183-1.481-8.09-4.239c-31.504-45.578-53.429-96.374-65.165-150.976
		c-11.736-54.603-12.618-109.921-2.623-164.419c0.869-4.737,5-8.053,9.651-8.053c0.586,0,1.182,0.053,1.779,0.163l381.603,69.83
		L594.638,359.65c-3.083-4.462-1.965-10.579,2.497-13.663c45.58-31.506,96.376-53.431,150.978-65.167
		c29.297-6.297,59.215-9.489,88.922-9.489c25.253,0,50.653,2.31,75.495,6.866c5.335,0.979,8.867,6.095,7.891,11.43l-69.83,381.611
		l319.218-220.461c1.704-1.176,3.648-1.741,5.574-1.741c3.118,0,6.183,1.48,8.09,4.238c31.503,45.577,53.427,96.372,65.164,150.975
		C1260.371,658.852,1261.254,714.169,1251.259,768.666z"/>
	<g>
		<path d="M738.191,1388.465h-18.797v-70.841c-6.868,6.421-14.962,11.171-24.283,14.249v-17.058
			c4.905-1.605,10.235-4.649,15.988-9.131c5.753-4.481,9.7-9.71,11.84-15.687h15.252V1388.465z"/>
		<path d="M829.971,1314.413l-18.195,2.007c-0.446-3.746-1.605-6.511-3.479-8.295c-1.873-1.783-4.304-2.676-7.292-2.676
			c-3.97,0-7.325,1.784-10.068,5.352c-2.742,3.568-4.471,10.994-5.184,22.276c4.683-5.529,10.502-8.295,17.459-8.295
			c7.849,0,14.571,2.988,20.169,8.964c5.596,5.977,8.395,13.691,8.395,23.146c0,10.034-2.943,18.085-8.83,24.148
			c-5.887,6.066-13.446,9.098-22.677,9.098c-9.9,0-18.04-3.846-24.417-11.539c-6.378-7.692-9.566-20.303-9.566-37.828
			c0-17.972,3.322-30.928,9.967-38.866c6.645-7.938,15.274-11.907,25.888-11.907c7.447,0,13.613,2.085,18.496,6.255
			C825.522,1300.421,828.633,1306.475,829.971,1314.413z M787.359,1355.419c0,6.11,1.405,10.826,4.214,14.148
			s6.021,4.983,9.633,4.983c3.479,0,6.377-1.359,8.696-4.08c2.318-2.72,3.479-7.18,3.479-13.379c0-6.377-1.249-11.049-3.746-14.015
			c-2.498-2.966-5.619-4.448-9.365-4.448c-3.612,0-6.667,1.416-9.165,4.247C788.607,1345.709,787.359,1349.89,787.359,1355.419z"/>
		<path d="M842.748,1363.246l18.73-1.94c0.535,4.237,2.118,7.593,4.75,10.067c2.631,2.476,5.663,3.713,9.098,3.713
			c3.924,0,7.247-1.594,9.967-4.783c2.72-3.188,4.081-7.994,4.081-14.416c0-6.02-1.35-10.535-4.047-13.546
			c-2.699-3.01-6.211-4.515-10.536-4.515c-5.396,0-10.235,2.386-14.516,7.157l-15.252-2.208l9.633-51.04h49.703v17.593h-35.454
			l-2.943,16.657c4.191-2.096,8.473-3.144,12.844-3.144c8.339,0,15.408,3.033,21.206,9.098c5.797,6.065,8.696,13.937,8.696,23.613
			c0,8.072-2.341,15.275-7.024,21.607c-6.378,8.652-15.23,12.977-26.557,12.977c-9.054,0-16.434-2.43-22.142-7.291
			C847.273,1377.985,843.862,1371.452,842.748,1363.246z"/>
		<path d="M918.94,1363.246l18.73-1.94c0.535,4.237,2.118,7.593,4.75,10.067c2.631,2.476,5.663,3.713,9.098,3.713
			c3.924,0,7.247-1.594,9.967-4.783c2.72-3.188,4.081-7.994,4.081-14.416c0-6.02-1.35-10.535-4.047-13.546
			c-2.699-3.01-6.21-4.515-10.536-4.515c-5.396,0-10.235,2.386-14.516,7.157l-15.252-2.208l9.633-51.04h49.703v17.593h-35.454
			l-2.943,16.657c4.191-2.096,8.473-3.144,12.844-3.144c8.339,0,15.408,3.033,21.206,9.098c5.797,6.065,8.696,13.937,8.696,23.613
			c0,8.072-2.341,15.275-7.024,21.607c-6.378,8.652-15.23,12.977-26.557,12.977c-9.054,0-16.434-2.43-22.142-7.291
			C923.466,1377.985,920.055,1371.452,918.94,1363.246z"/>
	</g>
</g>
<g id="Camada_1">
	<g>
		<path fill="#2C2C2B" d="M478.631,928.92c-21.783-0.053-8.248-22.188-2.757-32.605c37.792-71.714,58.507-157.88,63.588-237.823
			c0.284-10.325,3.446-26.573,0.284-36.215c-2.074-4.796-2.904-8.688-7.848-10.341c-3.021-1.757-5.096-1.612-8.665-2.035
			c-5.101-0.703-10.062-1.249-15.146-1.393c-1.106-0.664-1.106-0.664-10.176-2.335c-10.467-5.896-7.583-40.466-1.937-49.842
			c11.29-7.154,43.488-35.519,50.24-11.831c1.515,2.916,2.742,4.274,5.363,6.205c1.796,2.884,12.664,2.625,14.457-0.262
			c3.023-4.151,5.79-16.125,10.322-17.197c7.987-0.727,15.404-2.943,23.955-3.061c1.368,0,2.742,0,4.114-0.142
			c12.254,0.724,26.571-0.671,37.178,5.678c1.775,3.41,3.57,8.493,5.641,12.38c4.944,5.627,15.143,8.089,22.284,5.083
			c17.216-1.807,7.035-23.684,27.117-23.14c6.189,0.724,6.189,0.724,11.446,0.724c11.257,2.194,25.712,1.066,37.142,1.066
			c7.423,2.89,7.563,16.268,13.1,21.755c3.151,4.817,17.204,2.887,21.735,2.602c0.55-0.119,1.234-0.261,1.901-0.527
			c2.48,0,8.145,0.122,9.092-2.741c12.788-12.801-1.474-17.341,22.016-23.145c9.092-9.088,9.092-94.862-2.217-102.97
			c-22.14-2.212-48.977,4.963-71.255,7.297c-33.87,1.936-60.848,8.635-90.987,24.357c-26.149,7.83-27.947-0.686-23.267-24.634
			c1.371-39.918-0.97-87.563,27.119-119.339c34.273-11.449,70.886-17.886,102.261-37.454c17.866-5.628,38.95-4.382,57.259-6.577
			c6.17-5.085,1.668-32.785,24.091-21.616c6.752,6.173,6.171,9.636,2.881,17.887c0,69.901,0,69.901,0.55,102.541v18.413
			c0.261,20.132,0.577,40.344,0.981,60.603c0,8.65,0,49.702,0.144,58.526c0.526,26.695-0.548,23.089,24.762,24.76
			c8.403,4.555,4.133,17.463,11.568,21.881c6.753,3.024,21.876,6.753,26.818,0.137c3.87-4.956,4.15-8.83,4.958-15.265
			c5.082-13.765,58.069-11.026,65.227,0.808c3.056,11.027,4.29,15.269,15.987,16.94c22.42-0.686,10.899-20.083,27.097-25.446
			c20.665,0,52.863-8.283,66.894,10.321c2.077,5.344,2.077,10.565,8.162,12.908c3.149,3.202,16.198,2.476,21.017,1.808
			c15.035-2.885,7.7-18.322,24.815-16.246c40.425,15.435,54.604,12.959,47.585,62.078c-5.101,11.976-24.234,12.379-26.432,23.542
			c4.147,97.145,32.499,188.998,77.658,274.71c6.752,21.873,21.032,31.745-5.681,31.633L478.631,928.92z M478.631,928.92"/>
		<path fill="#F7F7F7" d="M994.775,916.136c-17.461,0-35.118-0.142-52.722-0.279c-6.753,0-13.504-0.122-20.205-0.267h-19.713
			c-6.171,0-8.654-2.333-11.538-7.159c-0.844-36.59,6.84-67.577-14.579-97.066c-26.168-20.208,4.943-31.924,16.917-53.925
			c10.992-14.595,52.549-70.322,31.515-79.815c-3.327,0-37.862-0.866-29.759-11.027c12.382-1.815,25.625-1.353,38.129-1.669
			c20.681-12.93-8.952-51.339,25.074-53.129c26.292-4.24,56.962,0.262,83.656,0.582c13.91,7.434,9.641,62.214,10.885,80.102
			c6.224,47.354,13.384,100.872,33.044,144.904c5.91,26.43,24.357,49.579,29.051,75.462c-4.413,2.886-6.485,3.008-11.449,3.287
			H994.775z M994.775,916.136"/>
		<path fill="#F7F7F7" d="M786.506,853.64c0,6.349,0.14,12.655,0.284,19.132c0,15.722,7.016,35.805-9.778,41.96
			c-45.109-0.409-92.465,1.807-137.629-0.528c-13.063,0-51.472,6.872-47.476-15c12.797-29.986,26.432-63.171,32.62-95.525
			c10.462-21.072,9.636-53.267,15.684-76.095c-1.228-21.191,5.1-42.802,3.451-64.152c0.543-14.842-4.54-39.519,7.841-50.506
			c19.412-2.747,78.203-9.902,84.236,10.987c1.794,41.191-1.935,41.59,39.799,41.59c15.387,9.777-18.33,8.376-22.195,8.653
			c-20.75,10.341,24.67,64.96,30.564,74.896c5.081,6.459,42.908,45.483,32.905,51.738
			C793.049,815.688,787.054,825.994,786.506,853.64L786.506,853.64z M786.506,853.64"/>
		<path fill="#F7F7F7" d="M1156.755,906.216c18.874,0,37.862,0.14,56.858,0.288c2.745,1.123,3.462,2.738,3.462,5.626
			c-3.324,4.409-69.816,4.814-75.727,1.93C1134.071,904.831,1151.393,905.688,1156.755,906.216L1156.755,906.216z M1156.755,906.216
			"/>
		<path fill="#F7F7F7" d="M550.208,913.111c-6.328-0.141-61.671,5.486-53.267-8.549c5.785-3.428,62.2-2.621,66.332,2.889
			C563.273,914.732,555.853,912.97,550.208,913.111L550.208,913.111z M550.208,913.111"/>
		<path fill="#F7F7F7" d="M804.708,911.039c-16.529-4.132-7.702-56.855-7.031-71.715c8.248-28.893,37.734-33.452,64.026-25.48
			c6.559,5.675,11.38,12.833,15.673,20.395c1.384,12.243,6.345,72.265-1.956,76.672c-12.096-2.333-7.685-63.624-9.759-76.672
			c-14.579-24.761-48.046-20.663-54.92,7.16C810.335,853.233,814.203,906.355,804.708,911.039L804.708,911.039z M804.708,911.039"/>
		<path fill="#F7F7F7" d="M1140.949,894.121c-4.677-2.889-5.487-5.772-0.53-8.691c6.157,0,74.862-7.297,59.688,7.877
			C1184.313,897.127,1157.881,894.121,1140.949,894.121L1140.949,894.121z M1140.949,894.121"/>
		<path fill="#F7F7F7" d="M504.785,891.501c-4.679-2.342-4.134-5.083-1.375-8.405c14.722-0.827,66.475-6.178,70.47,0.98
			C573.88,897.127,508.634,891.501,504.785,891.501L504.785,891.501z M504.785,891.501"/>
		<path fill="#F7F7F7" d="M1129.521,872.914c-3.871-1.67-4.135-3.148-2.888-7.021c6.895-5.225,52.46-1.495,63.027-1.495
			c5.821,1.354,4.958,4.964,1.532,7.97C1189.66,872.772,1189.66,872.772,1129.521,872.914L1129.521,872.914z M1129.521,872.914"/>
		<path fill="#F7F7F7" d="M517.165,867.689c-3.994-2.342-3.712-6.088,0.278-8.55c10.185-0.278,56.438-6.718,61.937,0.721
			C579.38,872.503,527.083,867.423,517.165,867.689L517.165,867.689z M517.165,867.689"/>
		<path fill="#F7F7F7" d="M1159.55,852.562c-8.828-0.141-41.319,4.823-43.083-5.943c4.677-7.703,60.142-4.416,65.084-0.265
			C1181.552,856.116,1166.709,852.421,1159.55,852.562L1159.55,852.562z M1159.55,852.562"/>
		<path fill="#F7F7F7" d="M581.862,839.729c-17.077-4.276-49.133,11.025-58.367-4.418c0-11.834,64.98-4.361,66.614-2.74
			C590.109,839.46,588.475,839.729,581.862,839.729L581.862,839.729z M581.862,839.729"/>
		<path fill="#F7F7F7" d="M1161.894,832.849c-5.942-0.141-67.177,6.067-56.589-9.053c7.016-2.343,60.808-3.874,66.227,2.881
			C1171.531,832.849,1167.644,832.849,1161.894,832.849L1161.894,832.849z M1161.894,832.849"/>
		<path fill="#F7F7F7" d="M566.72,816.059c-4.416,0-46.794,5.136-34.959-8.658c2.744-0.404,2.744-0.404,62.216,0.41
			c4.682,2.335,3.17,6.033-0.14,8.248H566.72z M566.72,816.059"/>
		<path fill="#F7F7F7" d="M1100.342,810.291c-2.602-2.604-4.273-5.896-0.122-8.424c10.022-0.127,57.926-7.425,59.863,4.41
			c-1.127,1.938-1.127,1.938-2.342,2.936C1150.461,809.746,1150.461,809.746,1100.342,810.291L1100.342,810.291z M1100.342,810.291"
			/>
		<path fill="#F7F7F7" d="M1098.007,791.96c-17.326-17.317,48.038-9.899,54.391-9.899c4.218,1.938,3.815,6.208,0.263,8.285
			C1134.741,790.611,1115.749,789.627,1098.007,791.96L1098.007,791.96z M1098.007,791.96"/>
		<path fill="#F7F7F7" d="M580.071,790.89c-5.93,0-11.839,0-17.906,0.122c0,0-33.996,4.555-24.356-7.556
			c1.512-0.673,75.163-10.166,65.244,6.309C595.489,790.89,587.774,790.752,580.071,790.89L580.071,790.89z M580.071,790.89"/>
		<path fill="#F7F7F7" d="M1092.379,771.62c-4.823-1.125-4.684-5.223-1.936-8.425c5.888-0.527,65.222-7.969,62.758,4.551
			C1148.387,775.05,1102.556,771.479,1092.379,771.62L1092.379,771.62z M1092.379,771.62"/>
		<path fill="#F7F7F7" d="M594.102,770.225c-5.766,0-67.02,5.663-48.853-9.51c0,0,61.107-7.565,64.416,6.082
			C606.219,771.879,600.311,770.225,594.102,770.225L594.102,770.225z M594.102,770.225"/>
		<path fill="#2C2C2B" d="M691.138,759.374c-8.949-3.199-12.114-1.26-16.231-10.901c-0.422-18.555-11.852-104.301,27.666-82.021
			c14.031,10.569,8.949,39.393,8.122,54.52C715.517,745.061,715.109,757.705,691.138,759.374L691.138,759.374z M691.138,759.374"/>
		<path fill="#2C2C2B" d="M965.882,678.029c2.337-3.149,3.993-6.494,6.469-9.644c0.545-0.259,1.096-0.544,1.621-0.984
			c10.906-2.039,13.913,2.203,22.016,4.134c8.973,13.505,8.828,67.444,0.459,80.811c-4.555,1.089-6.892,2.879-12.696,3.165
			c-2.884,0.118-5.626,0.259-8.371,0.405C956.77,751.361,964.473,693.691,965.882,678.029L965.882,678.029z M965.882,678.029"/>
		<path fill="#F7F7F7" d="M599.747,751.093c-45.969-0.547-45.969-0.547-51.753-1.091c-4.113-3.285-3.291-6.068,0.963-8.106
			c46.677,0.285,46.677,0.285,61.254,0.812C620.128,750.142,603.336,751.093,599.747,751.093L599.747,751.093z M599.747,751.093"/>
		<path fill="#F7F7F7" d="M1086.307,749.052c-4.553-2.654-4.148-6.752,0.408-8.54c60.263,0,60.263,0,61.672,0.398
			c2.887,3.465,3.147,6.207-1.409,7.968C1126.774,748.878,1106.569,748.878,1086.307,749.052L1086.307,749.052z M1086.307,749.052"
			/>
		<path fill="#F7F7F7" d="M611.722,730.061c-19.132-0.436-38.386-0.858-57.666-1.266c-4.536-1.935-6.189-6.208-0.967-8.813
			c41.575,0.723,41.575,0.723,61.534,1.535C619.987,724.662,616.825,729.743,611.722,730.061L611.722,730.061z M611.722,730.061"/>
		<path fill="#F7F7F7" d="M1137.483,730.061c-9.902-0.142-53.934,3.431-59.014-3.729c0-13.186,62.48-5.626,65.363-1.669
			C1143.286,728.794,1141.09,729.625,1137.483,730.061L1137.483,730.061z M1137.483,730.061"/>
		<path fill="#F7F7F7" d="M867.331,718.084c-6.346-15.839,28.771-9.357,16.651-0.313
			C878.499,717.772,872.958,717.947,867.331,718.084L867.331,718.084z M867.331,718.084"/>
		<path fill="#F7F7F7" d="M837.874,712.548c-14.031-10.448,2.765-47.62,11.134-15.269
			C848.602,705.527,847.246,711.876,837.874,712.548L837.874,712.548z M837.874,712.548"/>
		<path fill="#F7F7F7" d="M804.708,712.422c-13.102-7.031,5.223-7.843,5.223-0.686C808.84,712.28,808.84,712.28,804.708,712.422
			L804.708,712.422z M804.708,712.422"/>
		<path fill="#F7F7F7" d="M609.382,710.348c-17.881-0.805-35.926-1.754-53.951-2.745c-9.095-1.758-2.342-7.838,3.588-8.653
			c6.051,0.286,70.04-4.273,55.04,10.709C612.547,709.802,611.04,710.064,609.382,710.348L609.382,710.348z M609.382,710.348"/>
		<path fill="#F7F7F7" d="M1080.396,708.324c-3.599-2.074-4.006-2.216-3.599-6.486c3.166-3.467,63.165-9.5,64.957,3.028
			C1131.736,712.021,1083.687,708.324,1080.396,708.324L1080.396,708.324z M1080.396,708.324"/>
		<path fill="#F7F7F7" d="M1077.343,687.788c-3.554-2.479-4.098-5.492-0.545-8.406c12.381-2.48,51.506-2.883,56.321-0.549
			C1143.969,693.288,1083.687,687.662,1077.343,687.788L1077.343,687.788z M1077.343,687.788"/>
		<path fill="#F7F7F7" d="M608.698,687.118c-5.923-0.142-62.362,5.365-53.125-8.562c7.156-3.552,59.174-3.147,62.619,3.16
			C618.192,687.788,613.515,686.856,608.698,687.118L608.698,687.118z M608.698,687.118"/>
		<path fill="#F7F7F7" d="M1074.594,666.716c-2.619-1.612-3.689-4.134-1.928-7.158c5.258-3.812,56.992-2.479,60-1.353
			C1144.781,673.468,1081.493,666.716,1074.594,666.716L1074.594,666.716z M1074.594,666.716"/>
		<path fill="#F7F7F7" d="M558.456,655.022h58.774c3.866,2.462,3.729,6.066-0.405,8.55h-57.806
			C554.749,661.088,553.496,657.484,558.456,655.022L558.456,655.022z M558.456,655.022"/>
		<path fill="#F7F7F7" d="M927.476,618.813c-2.943-5.446-13.277-9.02-20.42-7.447c-22.772,0.366-123.673,4.182-130.044,3.491
			c-26.781-2.909-36.336,32.321-20.893,36.194c5.485-0.253,139.563-2.253,157.086-0.204c0.558,0.128,1.138,0.244,1.746,0.345
			C933.823,648.59,927.739,635.61,927.476,618.813z"/>
		<path fill="#F7F7F7" d="M795.738,645.793"/>
		<path fill="#F7F7F7" d="M865.661,647.725"/>
		<path fill="#F7F7F7" d="M885.199,647.465"/>
		<path fill="#F7F7F7" d="M817.209,647.042"/>
		<path fill="#F7F7F7" d="M1104.493,644.298c-5.941-0.126-38.672,4.821-32.235-8.147c4.818-2.883,55.187-2.301,60.004,0.586
			C1140.279,648.849,1109.436,644.298,1104.493,644.298L1104.493,644.298z M1104.493,644.298"/>
		<path fill="#F7F7F7" d="M604.161,643.044c-0.825,0-48.871,6.753-47.356-7.027c2.075-2.029,71.167-10.979,61.247,5.675
			C614.205,643.626,608.419,642.904,604.161,643.044L604.161,643.044z M604.161,643.044"/>
		<path fill="#F7F7F7" d="M559.425,624.04c-3.716-3.697-4.399-6.299,0.542-8.779c9.089,0,57.54-5.222,61.534,1.672
			C621.502,629.029,568.92,623.913,559.425,624.04L559.425,624.04z M559.425,624.04"/>
		<path fill="#F7F7F7" d="M1071.715,622.012c-2.887-1.385-3.728-2.794-3.728-5.803c3.057-6.171,55.761-4.547,60.983-1.927
			c2.357,3.054,1.355,6.201-2.197,7.591C1108.45,621.873,1090.177,621.873,1071.715,622.012L1071.715,622.012z M1071.715,622.012"/>
		<path fill="#FFFFFF" d="M827.533,513.248c-4.695-18.994-1.35-82.75-1.494-102.832c0-15.574-0.139-31.108-0.261-46.69
			c-0.459-59.015-0.459-59.015-0.139-81.435c2.74-3.732,4.502-0.58,4.957,2.62c0.121,6.295,0.267,12.64,0.404,18.988v8.248
			c0,6.614,0.122,13.191,0.267,19.944c0,17.055,0.14,34.17,0.261,51.229c0.139,18.146,0.284,36.327,0.423,54.604v0.453
			c0,8.372,0.123,16.917,0.26,25.434c0.143,5.359,0.267,42.999,0.406,48.484C830.861,513.827,829.998,514.235,827.533,513.248
			L827.533,513.248z M827.533,513.248"/>
		<path fill="#FFFFFF" d="M635.812,448.95c-3.302-3.271,0.83-54.92,1.114-66.211c4.677-23.11,4.677-42.101,22.84-59.882
			c25.187-9.778,54.625-13.734,78.309-26.835c11.03-3.958,75.583-29.697,64.013,2.341c-1.937,21.615-4.818,43.083-8.406,64.837
			c0,17.923,16.109,35.241,16.109,53.11c-55.607,9.638-114.92,3.2-165.992,31.974C641.178,448.421,638.558,448.683,635.812,448.95
			L635.812,448.95z M635.812,448.95"/>
		<path fill="#E11C2D" d="M689.768,410.156c-7.442-7.038,1.512-17.923-9.499-22.28c-30.703,5.629-20.096-4.695-15.419-36.791
			c4.552-10.588,23.684-1.071,24.373-11.114c-14.594-31.974,17.604-22.596,43.224-24.097c13.051,5.771-4.151,24.764,16.917,17.344
			c21.21-12.699,8.513,30.507,7.3,40.463c-3.729,5.626-19.94,0.544-26.293,6.84c-1.388,6.634,2.482,16.129-3.462,20.665
			C714.528,404.066,702.148,407.128,689.768,410.156L689.768,410.156z M689.768,410.156"/>
		<path fill="#FFFFFF" d="M703.537,396.365c-12.66-3.691,0.688-20.925-13.361-20.925c-21.191,6.087-16.234,2.918-13.209-17.462
			c18.446-6.894,30.001,1.246,21.474-23.423c0-9.624,23.248-6.562,25.463-4.399c1.531,21.648,0.842,19.455,19.798,16.971
			c5.948,1.071,3.203,13.593,0.583,16.199c-25.748,6.752-24.532,1.93-27.556,25.074
			C713.174,394.308,710.695,395.699,703.537,396.365L703.537,396.365z M703.537,396.365"/>
		<path fill="#E11C2D" d="M817.089,324.794c0,6.612,0,13.239,0.12,19.993v0.931c-0.399,0-0.399,21.07,0,21.07
			c0,34.806-1.933,31.249-13.36,1.354c0-9.232,3.056-16.651,4.549-25.57c0.126-9.354-3.689-31.375,5.949-36.19
			C817.493,312.414,816.949,318.216,817.089,324.794L817.089,324.794z M817.089,324.794"/>
		<path fill="#D2202F" d="M817.209,345.718v21.07C816.81,366.788,816.81,345.718,817.209,345.718L817.209,345.718z M817.209,345.718
			"/>
		<path fill="#F7F7F7" d="M770.575,688.508c5.767-7.336,123.979-9.355,134.162-0.846c11.66,9.813-31.604,68.254-54.833,97.322
			c-4.642,5.822-17.604,4.872-22.281-0.847C804.023,755.455,764.824,695.942,770.575,688.508L770.575,688.508z M770.575,688.508"/>
		<path fill="#E21C2A" d="M833.691,769.368h11.342v10.583c-0.353,7.602-10.887,7.367-11.342,0V769.368z M828.659,747.845
			c-6.578-15.306-24.636-19.454-35.435-9.185c1.936-21.386,22.685-29.083,35.121-15.178c-2.567-15.067,1.125-28.717,11.024-40.95
			c9.903,12.233,13.594,25.883,11.03,40.95c12.431-13.905,33.184-6.208,35.115,15.178c-10.796-10.269-28.856-6.121-35.434,9.185
			H828.659z M826.008,754.873h26.726v10.623h-26.726V754.873z M826.008,754.873"/>
	</g>
	<path fill="#F7F7F7" d="M1169.188,566.07c-25.356-12.513-31.244-26.653-44.736,4.695c-13.168,6.279-28.539-1.05-42.571-4.795
		c-13.334-9.702-38.842-21.56-42.804-22.966c-10.168,0-15.672-1.935-18.677,7.963c-3.059,24.238-19.735,17.075-41.47,15.989
		c-15.122-3.469-11.517-8.829-16.477-22.198c-5.275-3.412-33.764-4.936-40.204,3.47c-5.36,27.236-20.396,20.082-48.571,20.082
		c-27.696-11.98,0.532-25.71-42.679-25.71c-17.657,3.69-19.678-1.254-23,17.194c-5.102,14.317-53.128,11.395-64.297,5.223
		c-7.419-16.514-5.89-25.073-28.911-20.259c-13.875-0.662-18.553,1.672-20.482,16.252c-5.911,14.856-27.121,2.072-33.996,8.969
		c-0.373,0-0.725,0.015-1.085,0.025l0.001-0.009c0,0-0.025,0.004-0.075,0.011c-1.861,0.054-3.557,0.236-5.08,0.528
		c-7.768,0.586-21.804,0.68-23.996-5.965l-0.005,0.004c-0.063-2.522-0.253-5.294-0.588-8.383
		c-7.983-21.467-41.574-19.939-44.736,4.695c-7.986,14.723-31.659,11.43-45.691,7.685c-15.824-11.513-6.47-21.735-28.225-7.685
		c-3.446,5.663-1.231,13.635-1.086,20.117c4.677,12.245,63.851,3.694,78.59,6.84c5.608,0,10.657,0.127,15.155,0.123l0,0h0.199
		c0.089,0,0.181,0,0.269,0l52.587,0.001l0-0.003c0.679,0.166,1.378,0.322,2.115,0.461c30.968-1.385,75-2.457,106.25,2.22
		c3.465-2.94,63.608-1.816,66.615-0.32c33.874,0,73.79-4.357,106.798,1.124c30.768-1.328,71.25,3.809,100.959-2.703
		c15.363,7.378,75.498-0.092,88.755,2.737l13.52,2.08C1172.384,593.563,1173.042,601.597,1169.188,566.07z"/>
	<g>
		<path fill="#2C2C2B" d="M803.77,646.465h-6.253v-20.684c-2.285,1.875-4.977,3.262-8.077,4.16v-4.98
			c1.631-0.469,3.404-1.357,5.318-2.666s3.227-2.835,3.938-4.58h5.074V646.465z"/>
		<path fill="#2C2C2B" d="M834.299,624.844l-6.052,0.586c-0.148-1.094-0.534-1.901-1.157-2.422s-1.432-0.781-2.425-0.781
			c-1.321,0-2.437,0.521-3.349,1.563c-0.912,1.042-1.487,3.21-1.724,6.504c1.558-1.614,3.493-2.422,5.808-2.422
			c2.611,0,4.847,0.872,6.708,2.617s2.793,3.997,2.793,6.758c0,2.93-0.979,5.28-2.938,7.051c-1.958,1.771-4.473,2.656-7.543,2.656
			c-3.293,0-6.001-1.123-8.122-3.369c-2.122-2.246-3.182-5.928-3.182-11.045c0-5.247,1.104-9.03,3.315-11.348
			c2.21-2.317,5.081-3.477,8.611-3.477c2.477,0,4.528,0.608,6.152,1.826S833.854,622.526,834.299,624.844z M820.125,636.816
			c0,1.784,0.468,3.161,1.402,4.131c0.935,0.97,2.003,1.455,3.205,1.455c1.157,0,2.121-0.397,2.893-1.191
			c0.771-0.794,1.157-2.097,1.157-3.906c0-1.862-0.416-3.226-1.246-4.092c-0.831-0.866-1.869-1.299-3.115-1.299
			c-1.202,0-2.218,0.413-3.049,1.24C820.54,633.981,820.125,635.202,820.125,636.816z"/>
		<path fill="#2C2C2B" d="M854.459,646.465h-6.253v-20.684c-2.285,1.875-4.977,3.262-8.077,4.16v-4.98
			c1.631-0.469,3.404-1.357,5.318-2.666c1.914-1.309,3.227-2.835,3.939-4.58h5.073V646.465z"/>
		<path fill="#2C2C2B" d="M863.894,639.102l6.23-0.566c0.178,1.237,0.704,2.217,1.58,2.939s1.884,1.084,3.026,1.084
			c1.305,0,2.411-0.466,3.315-1.396s1.357-2.334,1.357-4.209c0-1.758-0.449-3.076-1.346-3.955c-0.898-0.879-2.066-1.318-3.504-1.318
			c-1.795,0-3.405,0.696-4.829,2.09l-5.074-0.645l3.205-14.902h16.533v5.137h-11.793l-0.979,4.863
			c1.394-0.612,2.818-0.918,4.272-0.918c2.773,0,5.125,0.886,7.054,2.656c1.928,1.771,2.893,4.069,2.893,6.895
			c0,2.356-0.779,4.46-2.336,6.309c-2.122,2.526-5.066,3.789-8.833,3.789c-3.012,0-5.467-0.71-7.366-2.129
			S864.264,641.497,863.894,639.102z"/>
	</g>
</g>
</svg>
