<?xml version="1.0"?>
<svg xmlns="http://www.w3.org/2000/svg" xmlns:xlink="http://www.w3.org/1999/xlink" viewBox="0 0 2335.4 2754.4">
<g stroke="#111">
<g stroke-width="30.5">
<path d="m15.28 15.78v1570c0 711.1 515.9 1152 1152 1152 636.4 0 1152-441.2 1152-1152v-1570z" fill="#f02c2d"/>
<circle fill="#fff" r="1035" cy="1283" cx="1168"/>
</g>
<circle stroke-width="14.2" fill="#f02c2d" r="870.9" cy="1283" cx="1168"/>
<use xlink:href="#a" transform="matrix(.5.866-.866.5 1695-369.8)"/>
<g id="a">
<g id="b" fill="#f02c2d" transform="matrix(1.016 0 0 1.016 1.11-.07)" stroke-width="9">
<path d="m1083 955.5c21-4.41 43-6.74 65.4-6.74 22.34 0 44.2 2.32 65.2 6.74 2.2.46 4.48.7 6.82.7 18.48 0 33.46-14.98 33.46-33.46 0-15.48-10.51-28.5-24.77-32.3-26-5.65-53.1-8.65-80.8-8.65-27.72 0-54.74 2.98-80.8 8.65-14.27 3.83-24.78 16.85-24.78 32.3 0 18.48 14.98 33.46 33.46 33.46 2.34 0 4.62-.24 6.82-.7m12.39-470c-49.74 13.43-37.1 33.3-27.44 43.68 18.7 19.75 22.91 80 5.6 126-42.92 97.5-34.6 196.7 10.73 232.2 21.1-3.66 42.84-5.57 65-5.57 21.54 0 42.65 1.8 63.2 5.26 45.3-35.49 53.3-134.4 10.35-231.9-17.31-45.91-13.1-106.2 5.6-126 9.64-10.38 22.29-30.39-27.44-43.82-17.1-1.12-34.3-1.69-51.72-1.69-18.1 0-36.1.62-53.89 1.83m-91-33.8c0 21.36 17.32 38.68 38.68 38.68 1.31 0 2.6-.06 3.9-.2 33.3-4.33 67.2-6.55 101.6-6.55 34.38 0 68.2 2.22 101.5 6.55 1.36.14 2.65.21 3.95.21 21.36 0 38.68-17.32 38.68-38.68 0-19.69-14.71-35.94-33.74-38.4l-.17-.05c-36.1-4.63-72.9-7-110.2-7-37.3 0-74.1 2.39-110.2 7-19 2.43-33.95 18.73-33.95 38.42z" fill="#fff"/>
<circle cy="319.7" cx="1149" r="32.6" fill="none"/>
</g>
<use xlink:href="#b" transform="matrix(1 0 0-1 0 2565)"/>
</g>
<use xlink:href="#a" transform="matrix(-.5.866-.866-.5 2862 912.9)"/>
<circle stroke-width="15.2" fill="#fff" r="321.4" cy="1283" cx="1168"/>
<circle r="265.5" cy="1284" cx="1168" stroke-width="14.2" fill="none"/>
<circle stroke-width="19.3" fill="#f02c2d" r="148" cy="1283" cx="1168"/>
</g>
</svg>